<?xml version="1.0" standalone="no"?>
<!DOCTYPE svg PUBLIC "-//W3C//DTD SVG 20010904//EN"
 "http://www.w3.org/TR/2001/REC-SVG-20010904/DTD/svg10.dtd">
<svg version="1.0" xmlns="http://www.w3.org/2000/svg"
 width="503.000000pt" height="496.000000pt" viewBox="0 0 503.000000 496.000000"
 preserveAspectRatio="xMidYMid meet">

<g transform="translate(0.000000,496.000000) scale(0.100000,-0.100000)"
fill="#000000" stroke="none">
<path d="M1898 4198 c-56 -86 -87 -177 -103 -304 -12 -101 -11 -130 16 -281
10 -59 30 -128 40 -137 2 -2 3 31 2 75 -2 83 10 105 22 42 10 -54 28 -84 76
-128 50 -45 60 -35 28 27 -20 38 -23 62 -27 198 -3 91 -8 147 -13 135 -4 -11
-8 -45 -8 -75 -1 -30 -5 -61 -10 -68 -32 -51 -27 255 5 363 13 41 -9 4 -27
-47 l-19 -53 4 85 c3 47 13 107 22 133 18 54 15 70 -8 35z"/>
<path d="M3595 4051 c-14 -44 -29 -108 -33 -143 -7 -57 -4 -70 24 -139 43
-103 73 -159 83 -159 9 0 29 38 70 134 20 45 20 73 1 61 -4 -3 -11 2 -14 11
-5 12 -10 13 -19 5 -10 -7 -17 -7 -24 0 -8 8 -13 7 -18 -1 -5 -8 -11 -8 -21 1
-11 9 -18 9 -26 1 -18 -18 -28 -15 -28 8 0 25 29 40 75 40 20 0 45 -5 56 -10
10 -6 19 -7 19 -3 0 19 -61 215 -75 242 -25 49 -41 38 -70 -48z m93 -350 c12
-7 12 -13 -1 -36 l-14 -28 -18 26 c-24 37 -3 61 33 38z"/>
<path d="M2931 3764 c0 -11 3 -14 6 -6 3 7 2 16 -1 19 -3 4 -6 -2 -5 -13z"/>
<path d="M2950 3741 c0 -5 5 -13 10 -16 6 -3 10 -2 10 4 0 5 -4 13 -10 16 -5
3 -10 2 -10 -4z"/>
<path d="M2941 3713 c-2 -20 11 -43 20 -37 5 3 9 12 9 20 0 8 -4 13 -9 10 -5
-4 -12 0 -14 6 -4 9 -6 9 -6 1z"/>
<path d="M2971 3671 c-16 -28 4 -77 34 -85 20 -5 20 -5 1 9 -11 8 -14 15 -8
15 12 0 8 39 -8 69 -6 11 -10 9 -19 -8z m16 -33 c-3 -8 -6 -5 -6 6 -1 11 2 17
5 13 3 -3 4 -12 1 -19z"/>
<path d="M3052 3630 c0 -14 2 -19 5 -12 2 6 2 18 0 25 -3 6 -5 1 -5 -13z"/>
<path d="M3060 3562 c0 -22 -5 -44 -12 -48 -6 -4 -8 -3 -5 2 3 5 -3 21 -14 34
-10 14 -19 19 -19 12 0 -7 -4 -10 -10 -7 -5 3 -10 -3 -10 -14 0 -12 -4 -21
-10 -21 -5 0 -10 7 -10 15 0 16 -35 21 -45 6 -9 -15 16 -60 37 -67 10 -3 16
-9 13 -14 -3 -5 -13 -6 -22 -3 -11 4 -14 3 -9 -5 4 -7 2 -12 -4 -12 -7 0 -4
-12 7 -30 9 -16 21 -30 25 -30 4 0 8 -9 8 -19 0 -11 4 -22 9 -25 5 -3 14 -26
20 -51 10 -39 15 -45 31 -40 12 4 27 0 37 -10 16 -16 17 -16 25 4 4 11 9 21
10 21 2 0 3 -30 4 -67 0 -38 4 -88 9 -112 11 -61 22 -35 37 87 11 100 11 101
-13 126 -24 25 -59 131 -65 196 -1 19 -3 35 -4 35 -1 0 -3 15 -6 34 -6 50 -14
51 -14 3z m-90 -68 c0 -14 -3 -14 -15 -4 -8 7 -15 14 -15 16 0 2 7 4 15 4 8 0
15 -7 15 -16z m34 0 c3 -8 2 -12 -4 -9 -6 3 -10 10 -10 16 0 14 7 11 14 -7z
m53 -26 c-3 -8 -6 -5 -6 6 -1 11 2 17 5 13 3 -3 4 -12 1 -19z m-78 -45 c0 -11
-3 -13 -6 -5 -2 6 -10 9 -15 6 -7 -4 -8 -2 -4 4 11 18 26 14 25 -5z m128 -84
c2 -12 -1 -18 -7 -14 -5 3 -10 16 -10 27 0 26 13 16 17 -13z m-20 -41 c-3 -8
-6 -5 -6 6 -1 11 2 17 5 13 3 -3 4 -12 1 -19z m70 -50 c-3 -7 -5 -2 -5 12 0
14 2 19 5 13 2 -7 2 -19 0 -25z m-24 -28 c3 -11 2 -22 -2 -24 -4 -3 -8 6 -9
20 -2 29 4 31 11 4z"/>
<path d="M2365 3520 c-3 -5 -1 -10 4 -10 6 0 11 5 11 10 0 6 -2 10 -4 10 -3 0
-8 -4 -11 -10z"/>
<path d="M3970 3512 c0 -4 7 -35 16 -67 24 -92 14 -213 -25 -300 -17 -38 -29
-70 -27 -72 8 -8 54 71 72 122 26 75 24 216 -3 278 -20 43 -33 59 -33 39z"/>
<path d="M1112 3450 c0 -19 2 -27 5 -17 2 9 2 25 0 35 -3 9 -5 1 -5 -18z"/>
<path d="M826 3384 c-4 -9 -4 -19 -1 -22 2 -3 7 3 11 12 4 9 4 19 1 22 -2 3
-7 -3 -11 -12z"/>
<path d="M813 3293 c3 -31 12 -62 20 -70 12 -12 14 -12 14 1 0 8 -3 13 -7 11
-10 -6 -21 80 -14 100 4 8 1 15 -6 15 -10 0 -11 -15 -7 -57z"/>
<path d="M3003 3215 c-12 -20 -99 -31 -408 -51 -137 -9 -252 -17 -254 -19 -10
-10 15 -26 50 -31 24 -4 43 -13 46 -23 3 -9 12 -23 20 -33 10 -11 11 -18 4
-23 -15 -9 -14 -25 2 -25 8 0 29 7 47 16 44 23 121 13 165 -21 53 -40 139 -31
104 11 -10 13 -10 17 1 24 8 5 19 26 25 47 10 36 13 38 53 41 41 3 43 2 32
-18 -6 -12 -10 -26 -7 -33 2 -7 9 -3 15 10 17 31 96 83 126 83 31 0 35 15 6
23 -13 3 -18 10 -14 21 8 20 -2 21 -13 1z"/>
<path d="M1431 3200 c0 -8 4 -22 9 -30 12 -18 12 -2 0 25 -6 13 -9 15 -9 5z"/>
<path d="M4142 3165 c6 -14 13 -23 16 -21 7 7 -9 46 -18 46 -5 0 -4 -11 2 -25z"/>
<path d="M4160 3118 c0 -7 5 -20 10 -28 8 -12 10 -11 10 7 0 12 -4 25 -10 28
-5 3 -10 0 -10 -7z"/>
<path d="M1888 3104 c-4 -3 -97 -9 -208 -14 -111 -4 -204 -11 -208 -14 -3 -4
-1 -16 6 -26 7 -11 12 -25 12 -32 1 -18 48 -74 55 -66 4 3 0 19 -9 36 -18 34
-13 42 26 42 32 0 35 -7 11 -27 -17 -14 -17 -14 0 -9 12 4 17 0 17 -15 0 -11
7 -22 15 -25 10 -4 13 -13 10 -24 -10 -30 11 -32 52 -4 34 23 45 25 96 20 45
-4 57 -3 57 8 0 8 5 16 11 18 5 2 13 23 16 47 4 26 12 45 22 49 18 6 41 27 41
36 0 8 -15 8 -22 0z"/>
<path d="M3810 3068 c0 -31 59 -53 75 -28 3 6 -2 10 -12 10 -10 0 -29 7 -41
16 -18 12 -22 12 -22 2z"/>
<path d="M2730 2755 c0 -8 4 -15 10 -15 5 0 7 7 4 15 -4 8 -8 15 -10 15 -2 0
-4 -7 -4 -15z"/>
<path d="M2855 2710 c-8 -13 5 -13 25 0 13 8 13 10 -2 10 -9 0 -20 -4 -23 -10z"/>
<path d="M4512 2590 c7 -11 19 -22 28 -25 8 -4 4 5 -9 19 -29 31 -36 33 -19 6z"/>
<path d="M2003 2544 c-17 -9 -40 -25 -50 -36 -18 -21 -18 -21 4 -9 31 16 123
14 157 -4 36 -19 39 -19 27 4 -25 46 -92 68 -138 45z"/>
<path d="M2193 2505 l-45 -44 16 -42 c33 -82 92 -155 171 -209 32 -22 42 -35
38 -47 -4 -11 -3 -14 5 -9 7 4 10 2 7 -7 -17 -42 108 -118 226 -138 63 -10 91
-10 150 0 123 22 238 74 173 77 -15 1 -24 -4 -24 -12 0 -28 -113 -49 -122 -22
-3 7 -14 9 -31 4 -17 -4 -25 -11 -21 -18 5 -8 -8 -9 -47 -3 -30 4 -65 8 -79 9
-14 1 -31 5 -38 9 -7 5 -21 5 -32 2 -11 -4 -20 -2 -20 4 0 6 -5 11 -12 11 -6
0 -24 15 -40 33 l-29 32 17 -30 17 -30 -34 34 c-19 19 -35 45 -36 59 -1 25 -6
31 -50 59 -10 7 6 2 35 -10 50 -20 64 -38 41 -53 -8 -4 -7 -9 2 -15 20 -12 31
-11 23 3 -5 8 -2 9 11 5 9 -4 24 -2 31 4 8 6 26 9 41 6 16 -4 22 -4 15 -1 -18
8 -6 22 33 38 35 15 97 7 110 -14 4 -6 12 -10 18 -10 7 0 1 9 -13 19 l-24 19
38 7 c84 16 180 -8 227 -58 19 -20 21 -20 17 -3 -1 10 -27 32 -56 48 -58 34
-106 38 -247 26 -44 -4 -72 -5 -62 -2 24 8 21 30 -5 39 -13 4 -26 7 -30 6 -5
-1 -8 6 -8 15 0 9 5 12 12 8 7 -4 8 -3 4 4 -4 7 -3 12 3 12 5 0 13 -9 16 -21
10 -31 18 -15 10 22 -5 23 -10 28 -16 18 -7 -11 -9 -9 -9 6 0 15 -2 17 -9 6
-7 -10 -13 -11 -30 -2 -17 10 -22 9 -27 -4 -3 -8 -13 -15 -22 -15 -12 0 -11 4
6 20 12 11 28 20 36 20 10 0 13 6 10 15 -4 8 -15 15 -26 15 -23 0 -91 30 -84
37 2 3 14 -1 26 -7 12 -6 31 -13 43 -15 22 -4 22 -4 2 11 -11 9 -19 19 -18 24
7 26 -148 100 -209 100 -22 0 -42 -12 -75 -45z m135 16 c7 -4 15 -23 17 -42
l3 -34 -12 28 c-7 15 -15 25 -18 21 -4 -3 -11 4 -18 15 -12 23 2 29 28 12z
m76 -178 c32 -28 83 -62 112 -75 30 -13 54 -26 54 -30 0 -18 -127 49 -178 93
-49 43 -132 148 -132 166 0 9 19 -11 43 -44 24 -32 70 -81 101 -110z m-6 141
c4 2 8 -7 8 -20 2 -18 -3 -24 -18 -24 -12 0 -17 -4 -12 -12 4 -8 3 -9 -2 -5
-5 5 -9 26 -10 47 -1 34 1 37 13 24 8 -8 18 -12 21 -10z m-180 -102 l23 -47
-25 30 c-25 30 -40 65 -28 65 4 0 17 -22 30 -48z m187 27 c-6 -18 -5 -19 14
-7 16 10 23 10 33 0 9 -9 9 -12 -2 -12 -9 0 -8 -5 6 -15 12 -9 14 -14 6 -15
-7 0 -10 -5 -6 -12 4 -7 3 -8 -5 -4 -6 4 -9 12 -6 17 4 5 0 9 -7 9 -25 0 -49
25 -42 43 9 24 17 21 9 -4z m-109 -121 c22 -24 38 -48 32 -48 -2 0 -24 21 -48
46 -25 26 -36 42 -25 36 11 -6 29 -21 41 -34z m256 30 c-9 -9 -15 -9 -24 0 -9
9 -7 12 12 12 19 0 21 -3 12 -12z"/>
<path d="M2375 2460 c3 -5 8 -10 11 -10 2 0 4 5 4 10 0 6 -5 10 -11 10 -5 0
-7 -4 -4 -10z"/>
<path d="M1896 2463 c-6 -14 -5 -15 5 -6 7 7 10 15 7 18 -3 3 -9 -2 -12 -12z"/>
<path d="M3268 2420 c-4 -36 -10 -78 -13 -95 -3 -16 2 -7 10 20 8 28 14 70 13
95 -3 42 -4 40 -10 -20z"/>
<path d="M1630 2445 c13 -14 26 -25 28 -25 3 0 -5 11 -18 25 -13 14 -26 25
-28 25 -3 0 5 -11 18 -25z"/>
<path d="M1037 2453 c-13 -21 -28 -226 -23 -305 3 -48 2 -89 -3 -92 -16 -10
-37 4 -49 32 -11 26 -12 26 -7 2 4 -24 3 -24 -10 -6 -14 19 -15 19 -15 -8 0
-22 4 -27 22 -24 11 2 23 -3 26 -11 2 -8 0 -11 -6 -8 -5 4 -16 -1 -23 -10 -12
-15 -11 -16 9 -11 12 4 20 2 16 -3 -3 -5 0 -9 5 -9 6 0 11 5 11 12 0 6 3 8 7
5 3 -4 11 -3 17 2 8 7 11 -8 11 -54 0 -35 -3 -61 -7 -59 -4 2 -9 0 -12 -5 -4
-5 -2 -12 4 -16 5 -3 10 -16 10 -28 0 -18 -2 -20 -11 -7 -9 12 -10 12 -5 -4 5
-14 2 -17 -10 -12 -15 6 -15 4 -3 -11 8 -10 19 -21 24 -25 6 -5 5 -8 -4 -8
-24 0 8 -28 57 -50 43 -19 202 -71 202 -66 0 1 -24 49 -54 107 -87 168 -119
281 -151 539 -10 74 -19 136 -20 138 -2 2 -5 -1 -8 -5z m21 -634 c-10 -6 -15
-17 -12 -27 4 -11 -1 -9 -14 7 -15 19 -17 28 -8 47 l11 23 20 -20 c19 -19 19
-21 3 -30z"/>
<path d="M1035 1829 c-4 -6 -5 -12 -2 -15 2 -3 7 2 10 11 7 17 1 20 -8 4z"/>
<path d="M3390 2419 c0 -4 7 -22 15 -40 8 -19 14 -27 14 -19 0 14 -28 72 -29
59z"/>
<path d="M4150 2331 c0 -5 5 -13 10 -16 6 -3 10 -2 10 4 0 5 -4 13 -10 16 -5
3 -10 2 -10 -4z"/>
<path d="M1740 2270 c-12 -16 -18 -30 -13 -30 4 0 16 14 25 30 22 39 15 39
-12 0z"/>
<path d="M3056 2273 c12 -48 74 -217 84 -227 16 -16 12 25 -4 43 -8 9 -28 60
-46 114 -30 92 -48 129 -34 70z"/>
<path d="M1923 2263 c15 -2 39 -2 55 0 15 2 2 4 -28 4 -30 0 -43 -2 -27 -4z"/>
<path d="M1868 2253 c7 -3 16 -2 19 1 4 3 -2 6 -13 5 -11 0 -14 -3 -6 -6z"/>
<path d="M2020 2253 c8 -3 30 -12 48 -19 17 -7 32 -11 32 -8 0 7 -67 34 -82
33 -8 0 -8 -3 2 -6z"/>
<path d="M3227 2253 c-4 -3 -7 -11 -7 -17 0 -6 5 -5 12 2 6 6 9 14 7 17 -3 3
-9 2 -12 -2z"/>
<path d="M3270 2231 c-12 -24 -13 -34 -1 -27 9 6 22 46 15 46 -2 0 -8 -9 -14
-19z"/>
<path d="M1710 2221 c0 -6 4 -13 10 -16 6 -3 7 1 4 9 -7 18 -14 21 -14 7z"/>
<path d="M3204 2198 c-3 -13 -13 -31 -22 -41 -8 -9 -13 -19 -10 -22 3 -3 12 5
20 17 17 26 32 68 24 68 -2 0 -8 -10 -12 -22z"/>
<path d="M3656 2204 c-3 -8 1 -22 9 -30 13 -14 15 -13 15 10 0 29 -15 43 -24
20z"/>
<path d="M925 2165 c7 -31 12 -41 19 -34 2 2 -3 18 -11 34 l-14 30 6 -30z"/>
<path d="M1683 2183 c-22 -8 -15 -43 7 -43 13 0 20 7 20 19 0 22 -9 30 -27 24z"/>
<path d="M2138 2183 c6 -2 18 -2 25 0 6 3 1 5 -13 5 -14 0 -19 -2 -12 -5z"/>
<path d="M3227 2158 c-14 -18 -35 -43 -47 -56 -12 -13 -20 -25 -17 -28 5 -6
71 66 87 95 16 31 6 26 -23 -11z"/>
<path d="M3560 2170 c0 -5 5 -10 10 -10 6 0 10 5 10 10 0 6 -4 10 -10 10 -5 0
-10 -4 -10 -10z"/>
<path d="M2117 2156 c-7 -17 18 -40 33 -31 5 3 10 15 10 26 0 23 -35 27 -43 5z"/>
<path d="M3540 2137 c0 -19 -6 -47 -14 -61 l-13 -27 -7 23 c-5 19 -8 20 -16 8
-5 -8 -10 -27 -10 -41 0 -34 -10 -43 -26 -21 -13 16 -13 16 -14 -1 0 -23 -89
-63 -164 -74 -33 -4 -61 -13 -63 -19 -2 -6 8 -22 22 -36 l25 -25 -67 -59 c-36
-32 -104 -108 -150 -169 -46 -60 -102 -132 -124 -160 -21 -27 -42 -60 -45 -72
-5 -18 -13 -23 -38 -23 -17 0 -46 -4 -64 -9 -31 -9 -36 -7 -83 38 -54 52 -60
46 -33 -32 9 -26 33 -64 56 -87 23 -22 39 -42 37 -45 -3 -2 -24 0 -47 6 -24 5
-47 7 -53 4 -5 -4 -9 -1 -9 5 0 7 -5 8 -17 1 -13 -7 -25 -4 -47 12 -19 14 -27
16 -24 6 2 -8 19 -21 37 -30 17 -10 33 -20 34 -24 1 -4 -22 -8 -52 -10 -29 -2
-55 -6 -58 -8 -2 -3 10 -27 28 -55 28 -45 32 -72 10 -72 -4 0 -27 27 -51 60
-24 33 -46 60 -49 60 -3 0 -44 -7 -91 -15 -47 -8 -122 -15 -167 -15 l-81 0 44
-75 c42 -68 48 -95 24 -95 -5 0 -18 17 -28 38 -58 117 -75 139 -115 148 -58
12 -176 74 -236 124 -89 74 -169 234 -186 373 l-7 54 -27 -26 c-198 -189 -276
-254 -417 -348 -49 -34 -151 -91 -225 -128 -74 -37 -146 -76 -161 -86 -15 -11
-43 -19 -66 -19 -72 0 -152 -49 -297 -182 -175 -160 -268 -270 -357 -423 -23
-38 -45 -71 -50 -73 -4 -2 -8 -105 -8 -228 l0 -224 1095 0 c602 0 1095 2 1095
4 0 14 -53 116 -61 116 -5 0 -30 29 -57 63 -26 35 -66 88 -89 119 -24 30 -46
68 -49 85 -5 26 -1 34 34 61 21 17 59 36 83 41 62 13 384 34 414 27 18 -5 27
-2 31 9 4 8 15 15 26 15 11 0 34 11 52 25 18 14 36 22 39 18 4 -3 7 0 7 8 0 8
16 31 36 50 20 18 65 71 102 117 36 45 67 81 69 79 5 -6 -46 -168 -57 -182 -6
-7 -37 -20 -70 -29 -33 -9 -62 -21 -66 -27 -7 -12 36 -2 93 22 24 10 77 25
119 34 43 9 80 17 83 19 15 9 206 27 228 21 24 -6 25 -9 20 -56 -6 -52 -45
-140 -78 -175 -19 -20 -26 -39 -11 -31 14 8 253 -20 264 -31 8 -8 6 -42 -6
-125 -9 -62 -16 -150 -16 -195 l0 -82 850 0 850 0 0 564 0 563 -97 86 c-54 47
-109 94 -122 104 l-23 19 12 125 c6 68 9 149 6 179 -2 30 -6 82 -7 115 -1 33
-6 -37 -9 -155 -9 -270 -35 -460 -62 -460 -4 0 -8 32 -8 70 0 101 -37 256 -82
348 -21 42 -28 22 -29 -90 l-2 -113 -12 120 c-13 117 -37 205 -57 205 -6 0
-23 10 -39 23 -101 79 -137 105 -229 157 -56 33 -117 65 -135 71 -19 7 -38 22
-44 33 -7 15 -10 16 -10 6 -2 -33 69 -159 118 -212 48 -52 79 -70 160 -94 8
-3 12 -7 9 -9 -10 -10 -109 23 -149 49 -22 15 -43 25 -46 23 -17 -18 123 -184
181 -214 18 -10 57 -17 93 -17 58 -1 61 -2 46 -18 -9 -10 -22 -18 -30 -18 -21
0 -15 -17 10 -25 18 -6 19 -8 5 -12 -9 -2 -35 5 -57 16 -22 12 -51 21 -63 21
-13 0 -57 16 -97 35 -112 54 -227 182 -331 370 -19 33 -35 61 -36 63 -1 2 -64
-49 -141 -114 -214 -182 -502 -439 -495 -441 4 -1 26 -7 50 -13 23 -6 42 -14
42 -18 0 -9 -75 -62 -87 -62 -5 0 -16 11 -23 25 -16 30 -30 23 -30 -15 0 -16
-4 -31 -9 -35 -21 -12 -122 -26 -219 -29 -57 -2 -108 -8 -114 -14 -9 -9 -73 0
-85 12 -9 8 -9 8 97 61 135 68 191 85 276 85 61 0 75 3 83 19 18 33 523 469
630 543 22 15 23 20 12 46 l-12 29 -115 -1 c-63 -1 -114 -1 -114 0 0 0 5 15
11 32 7 22 7 36 -1 51 -8 15 -8 27 1 42 7 14 7 25 1 31 -7 7 -12 3 -16 -10 -9
-28 -45 -25 -38 3 5 18 4 18 -11 6 -19 -15 -23 -41 -7 -41 6 0 10 -9 10 -19 0
-11 6 -21 13 -24 10 -4 10 -7 0 -18 -11 -11 -13 -10 -13 2 0 8 -9 20 -21 27
-16 11 -20 20 -15 42 3 16 1 32 -4 35 -6 4 -10 -9 -10 -28z m14 -181 c-3 -21
-9 -35 -11 -32 -3 3 -2 21 1 42 4 20 10 34 12 31 3 -3 2 -21 -2 -41z m-27 2
c-3 -8 -6 -5 -6 6 -1 11 2 17 5 13 3 -3 4 -12 1 -19z m40 -51 c-8 -13 -17 -32
-20 -42 -4 -17 -5 -17 -6 3 0 13 6 30 14 38 8 9 16 25 16 37 1 18 2 19 6 4 3
-10 -2 -28 -10 -40z m-122 13 c-3 -5 -1 -10 6 -10 8 0 8 -4 -1 -15 -7 -8 -17
-12 -22 -9 -6 4 -5 10 3 15 8 5 10 9 6 9 -9 0 1 20 9 20 3 0 2 -4 -1 -10z m80
-54 c-2 -13 -8 -33 -14 -43 -9 -16 -10 -16 -11 -1 0 9 5 20 10 23 6 4 8 11 5
16 -4 5 -3 14 0 19 10 16 12 12 10 -14z m-1947 -660 c30 -32 47 -43 62 -39 30
8 51 -13 40 -41 -7 -19 -2 -31 21 -60 47 -56 25 -69 -58 -35 -29 12 -35 11
-55 -8 -13 -11 -33 -24 -45 -27 -31 -10 -91 -73 -118 -127 -36 -69 -138 -129
-221 -129 -22 0 -41 -8 -58 -25 -80 -80 -148 -17 -154 145 -3 80 -1 88 26 130
66 103 198 187 352 224 122 29 141 33 156 35 6 0 29 -19 52 -43z m1457 -36
c-39 -40 -55 -49 -55 -31 0 16 61 71 78 71 11 0 4 -12 -23 -40z m-940 -128
c48 -74 84 -108 263 -254 67 -55 130 -124 121 -133 -3 -2 -25 15 -49 39 -25
23 -91 79 -148 125 -151 121 -186 160 -236 258 -26 53 -36 95 -13 59 7 -10 35
-52 62 -94z m825 22 c0 -3 -43 -55 -95 -116 -52 -61 -130 -157 -172 -214 -42
-57 -79 -102 -81 -99 -11 11 121 199 213 305 100 114 135 146 135 124z m-500
-444 c41 -39 66 -67 55 -62 -11 6 -42 13 -68 17 -47 7 -49 9 -73 62 -13 31
-24 60 -24 65 0 16 33 -9 110 -82z"/>
<path d="M1480 1131 c0 -5 6 -11 13 -13 17 -7 38 2 31 13 -7 12 -44 12 -44 0z"/>
<path d="M2225 2125 c0 -18 3 -31 8 -28 4 2 7 15 7 28 0 13 -3 26 -7 28 -5 3
-8 -10 -8 -28z"/>
<path d="M3452 2120 c0 -19 2 -27 5 -17 2 9 2 25 0 35 -3 9 -5 1 -5 -18z"/>
<path d="M2962 2120 c0 -14 2 -19 5 -12 2 6 2 18 0 25 -3 6 -5 1 -5 -13z"/>
<path d="M4310 2123 c0 -5 9 -19 20 -33 11 -14 20 -29 20 -33 0 -11 30 -41 30
-31 0 9 -60 104 -66 104 -2 0 -4 -3 -4 -7z"/>
<path d="M2640 2110 c20 -13 33 -13 25 0 -3 6 -14 10 -23 10 -15 0 -15 -2 -2
-10z"/>
<path d="M2710 2081 c0 -6 4 -13 10 -16 6 -3 7 1 4 9 -7 18 -14 21 -14 7z"/>
<path d="M4041 2075 c1 -19 18 -51 18 -35 0 8 -4 22 -9 30 -5 8 -9 11 -9 5z"/>
<path d="M2308 1979 c14 -27 27 -48 29 -45 5 5 -34 83 -45 90 -5 3 3 -17 16
-45z"/>
<path d="M4402 1965 c12 -24 23 -43 26 -41 4 5 -36 86 -43 86 -3 0 5 -20 17
-45z"/>
<path d="M1611 1984 c0 -11 3 -14 6 -6 3 7 2 16 -1 19 -3 4 -6 -2 -5 -13z"/>
<path d="M3170 1995 c0 -5 5 -17 10 -25 5 -8 10 -10 10 -5 0 6 -5 17 -10 25
-5 8 -10 11 -10 5z"/>
<path d="M1770 1967 c0 -7 13 -28 29 -47 l28 -34 81 2 c45 1 93 7 106 12 29
11 50 45 42 67 -6 14 -8 14 -24 -1 -23 -20 -32 -20 -47 1 -12 17 -14 17 -35
-2 -18 -16 -24 -17 -41 -6 -15 9 -24 9 -33 1 -10 -7 -17 -6 -26 5 -11 14 -14
13 -26 -2 -12 -17 -13 -17 -19 0 -8 20 -35 23 -35 4z"/>
<path d="M2556 1930 c20 -157 15 -144 94 -228 41 -42 82 -86 92 -96 9 -11 20
-18 22 -15 3 3 -10 22 -29 43 -32 36 -33 41 -21 65 22 43 29 88 14 97 -7 5
-44 23 -83 41 -67 31 -70 34 -77 74 -11 60 -19 73 -12 19z"/>
<path d="M965 1897 c11 -34 20 -39 23 -13 1 14 -5 27 -14 30 -12 5 -14 1 -9
-17z"/>
<path d="M2340 1910 c0 -8 5 -22 10 -30 9 -13 10 -13 10 0 0 8 -5 22 -10 30
-9 13 -10 13 -10 0z"/>
<path d="M4451 1872 c6 -18 15 -35 20 -38 5 -3 4 7 -3 23 -17 41 -30 53 -17
15z"/>
<path d="M4782 1850 c0 -14 2 -19 5 -12 2 6 2 18 0 25 -3 6 -5 1 -5 -13z"/>
<path d="M4491 1800 c14 -31 19 -36 19 -24 0 6 -7 19 -16 30 -14 18 -14 18 -3
-6z"/>
<path d="M2372 1755 c0 -16 2 -22 5 -12 2 9 2 23 0 30 -3 6 -5 -1 -5 -18z"/>
<path d="M1975 1569 c-4 -6 -5 -12 -2 -15 2 -3 7 2 10 11 7 17 1 20 -8 4z"/>
<path d="M1952 1523 c-5 -10 -12 -31 -16 -47 -6 -24 -5 -26 7 -14 8 7 16 28
19 46 5 36 3 40 -10 15z"/>
<path d="M2645 1505 l-30 -14 30 6 c17 3 37 9 45 14 27 15 -11 10 -45 -6z"/>
<path d="M2466 1355 c4 -9 16 -21 28 -27 19 -10 19 -9 -3 16 -28 30 -33 32
-25 11z"/>
<path d="M2544 394 l-22 -15 20 -65 c10 -35 30 -86 42 -112 13 -26 27 -62 31
-80 4 -18 18 -53 32 -77 l25 -45 69 0 c63 0 85 9 59 25 -34 21 -190 283 -190
319 0 24 -22 66 -34 65 -6 0 -21 -7 -32 -15z"/>
</g>
</svg>
